<svg width="361" height="394" viewBox="0 0 361 394" version="1.1" xmlns="http://www.w3.org/2000/svg" xmlns:xlink="http://www.w3.org/1999/xlink">
<title>No Background</title>
<desc>Created using Figma</desc>
<g id="Canvas" transform="translate(-1030 699)">
<clipPath id="clip-0" clip-rule="evenodd">
<path d="M 1030 -699L 1391 -699L 1391 -305L 1030 -305L 1030 -699Z" fill="#FFFFFF"/>
</clipPath>
<g id="No Background" clip-path="url(#clip-0)">
<g id="Logo">
<g id="Path 10">
<use xlink:href="#path0_stroke" transform="translate(1346.09 -473.715)" fill="#979797"/>
</g>
<g id="Path 2">
<use xlink:href="#path1_stroke" transform="translate(1331.36 -434.516)" fill="#979797"/>
</g>
<g id="Path 3">
<use xlink:href="#path2_stroke" transform="translate(1333.27 -432.918)" fill="#979797"/>
</g>
<g id="Path 4">
<use xlink:href="#path3_stroke" transform="translate(1332.61 -433.301)" fill="#979797"/>
</g>
<g id="Path 5">
<use xlink:href="#path4_stroke" transform="translate(1331.89 -433.413)" fill="#979797"/>
</g>
<g id="Path 6">
<use xlink:href="#path5_stroke" transform="translate(1333.4 -434.264)" fill="#979797"/>
</g>
<g id="Path 7">
<use xlink:href="#path6_stroke" transform="translate(1331.63 -433.283)" fill="#505AB2"/>
</g>
<g id="Fill 4">
<use xlink:href="#path7_fill" transform="translate(1079.37 -699)" fill="#71869E"/>
</g>
<g id="Fill 5">
<use xlink:href="#path8_fill" transform="translate(1177.96 -648.062)" fill="#71869E"/>
</g>
<g id="Fill 6">
<use xlink:href="#path9_fill" transform="translate(1035.97 -566)" fill="#71869E"/>
</g>
<g id="Fill 7">
<use xlink:href="#path10_fill" transform="translate(1182.37 -576.333)" fill="#71869E"/>
</g>
<g id="Fill 8">
<use xlink:href="#path11_fill" transform="translate(1030.17 -621.847)" fill="#FFFFFE"/>
</g>
<g id="Fill 9">
<use xlink:href="#path12_fill" transform="translate(1118.21 -690.609)" fill="#FFFFFE"/>
</g>
<g id="Fill 10">
<use xlink:href="#path13_fill" transform="translate(1146.54 -603.276)" fill="#FFFFFE"/>
</g>
<g id="Fill 11">
<use xlink:href="#path14_fill" transform="translate(1041.67 -645.32)" fill="#E5E5E0"/>
</g>
<g id="Fill 12">
<use xlink:href="#path15_fill" transform="translate(1038.67 -648.32)" fill="#E5E5E0"/>
</g>
<g id="Path 8">
<use xlink:href="#path16_stroke" transform="translate(1331.4 -434.673)" fill="#E5E5E0"/>
</g>
<g id="Path 9">
<use xlink:href="#path17_stroke" transform="translate(1349.84 -449.106)" fill="#E5E5E0"/>
</g>
<g id="Fill 13">
<use xlink:href="#path18_fill" transform="translate(1043.17 -545.076)" fill="#F1F0EB"/>
</g>
<g id="Fill 14">
<use xlink:href="#path19_fill" transform="translate(1041.67 -546.576)" fill="#E5E5E0"/>
</g>
<g id="Fill 15">
<use xlink:href="#path20_fill" transform="translate(1315.81 -493.186)" fill="#F1F0EB"/>
</g>
<g id="Fill 16">
<use xlink:href="#path21_fill" transform="translate(1314.31 -494.686)" fill="#E5E5E0"/>
</g>
<g id="Fill 17">
<use xlink:href="#path22_fill" transform="translate(1341.78 -445.288)" fill="#F1F0EB"/>
</g>
<g id="Fill 18">
<use xlink:href="#path23_fill" transform="translate(1340.28 -446.788)" fill="#E5E5E0"/>
</g>
<g id="Fill 19">
<use xlink:href="#path24_fill" transform="translate(1122.93 -453.374)" fill="#F3C9D6"/>
</g>
<g id="Fill 20">
<use xlink:href="#path25_fill" transform="translate(1045.93 -465.77)" fill="#F1C8D5"/>
</g>
<g id="Fill 21">
<use xlink:href="#path26_fill" transform="translate(1234.93 -391.576)" fill="#AFB5B4"/>
</g>
<g id="Fill 22">
<use xlink:href="#path27_fill" transform="translate(1233.43 -393.076)" fill="#E5E5E0"/>
</g>
<g id="Fill 23">
<use xlink:href="#path28_fill" transform="translate(1085.38 -643.812)" fill="#F2BB7A"/>
</g>
<g id="Fill 24">
<use xlink:href="#path29_fill" transform="translate(1083.88 -645.313)" fill="#E4E5DF"/>
</g>
<g id="Fill 25">
<use xlink:href="#path30_fill" transform="translate(1086.88 -642.063)" fill="#DE98B8"/>
</g>
<g id="Fill 26">
<use xlink:href="#path31_fill" transform="translate(1087.62 -609.038)" fill="#F2B767"/>
</g>
<g id="Fill 27">
<use xlink:href="#path32_fill" transform="translate(1088.24 -560.302)" fill="#B8D375"/>
</g>
<g id="Fill 28">
<use xlink:href="#path33_fill" transform="translate(1087.79 -587.262)" fill="#74C6D5"/>
</g>
<g id="Fill 29">
<use xlink:href="#path34_fill" transform="translate(1132.08 -475.015)" fill="#5E625F"/>
</g>
<g id="Fill 30">
<use xlink:href="#path35_fill" transform="translate(1064.8 -485.482)" fill="#5E625F"/>
</g>
<g id="Fill 31">
<use xlink:href="#path36_fill" transform="translate(1088.46 -460.45)" fill="#5F6360"/>
</g>
<g id="Fill 32">
<use xlink:href="#path37_fill" transform="translate(1087.96 -460.95)" fill="#A0A39F"/>
</g>
<g id="Fill 33">
<use xlink:href="#path38_fill" transform="translate(1071.23 -382.299)" fill="#B3DBD8"/>
</g>
<g id="Fill 34">
<use xlink:href="#path39_fill" transform="translate(1089.32 -447.67)" fill="#DE98B8"/>
</g>
<g id="Fill 35">
<use xlink:href="#path40_fill" transform="translate(1091.44 -615.934)" fill="#E7B8CA"/>
</g>
<g id="Fill 36">
<use xlink:href="#path41_fill" transform="translate(1091.99 -580.369)" fill="#F7CF92"/>
</g>
<g id="Fill 37">
<use xlink:href="#path42_fill" transform="translate(1092.68 -527.187)" fill="#D1E29D"/>
</g>
<g id="Fill 38">
<use xlink:href="#path43_fill" transform="translate(1092.38 -553.008)" fill="#A0D6DD"/>
</g>
<g id="Line">
<use xlink:href="#path44_stroke" transform="translate(1365.24 -425.418)" fill="#E5E5E0"/>
</g>
<g id="Line">
<use xlink:href="#path45_stroke" transform="translate(1366.44 -425.184)" fill="#E5E5E0"/>
</g>
<g id="Triangle">
<use xlink:href="#path46_fill" transform="translate(1345 -427.702)" fill="#E5E5E0"/>
<use xlink:href="#path47_stroke" transform="translate(1345 -427.702)" fill="#E5E5E0"/>
</g>
<g id="Triangle 2">
<use xlink:href="#path48_fill" transform="translate(1308 -355.045)" fill="#E5E5E0"/>
<use xlink:href="#path49_stroke" transform="translate(1308 -355.045)" fill="#E5E5E0"/>
</g>
<g id="Polygon">
<use xlink:href="#path50_fill" transform="translate(1289.47 -379.388)" fill="#E5E5E0"/>
<use xlink:href="#path51_stroke" transform="translate(1289.47 -379.388)" fill="#E5E5E0"/>
</g>
<g id="Oval">
<use xlink:href="#path52_fill" transform="translate(1298.2 -314.885)" fill="#E5E5E0"/>
<use xlink:href="#path53_stroke" transform="translate(1298.2 -314.885)" fill="#E5E5E0"/>
</g>
<g id="Oval 2">
<use xlink:href="#path54_fill" transform="translate(1346.44 -473.503)" fill="#E5E5E0"/>
<use xlink:href="#path55_stroke" transform="translate(1346.44 -473.503)" fill="#E5E5E0"/>
</g>
<g id="Oval 3">
<use xlink:href="#path56_fill" transform="translate(1141.09 -548.912)" fill="#E5E5E0"/>
</g>
<g id="Oval 4">
<use xlink:href="#path57_fill" transform="translate(1081.17 -635.32)" fill="#E4E5DF"/>
</g>
<g id="Oval 5">
<use xlink:href="#path58_fill" transform="translate(1081.19 -521.995)" fill="#E4E5DF"/>
</g>
<g id="Oval 6">
<use xlink:href="#path59_fill" transform="translate(1271 -328.912)" fill="#E5E5E0"/>
<use xlink:href="#path60_stroke" transform="translate(1271 -328.912)" fill="#E5E5E0"/>
</g>
<g id="Oval 7">
<use xlink:href="#path61_fill" transform="translate(1270 -333.912)" fill="#E5E5E0"/>
</g>
</g>
</g>
</g>
<defs>
<path id="path0_stroke" d="M -0.415956 0.277456C 0.0782296 1.01834 0.572107 1.75872 1.06628 2.49959L 1.8982 1.94469C 1.40422 1.20412 0.909921 0.463102 0.415958 -0.277448L -0.415956 0.277456Z"/>
<path id="path1_stroke" d="M 1.97156 0.0154897L 2.20742 0.456368L 2.20742 0.456368L 1.97156 0.0154897ZM -0.235375 2.61147C 0.646182 3.08185 1.36462 3.40296 1.94516 3.59979C 2.51622 3.7934 2.99569 3.88155 3.38263 3.8425C 3.79736 3.80065 4.14958 3.60163 4.31393 3.21638C 4.45602 2.88331 4.40951 2.51271 4.32633 2.21196C 4.15562 1.59478 3.72596 0.90435 3.31354 0.402034C 3.10505 0.148095 2.88072 -0.0827449 2.66923 -0.243078C 2.56539 -0.3218 2.44285 -0.400356 2.31032 -0.449028C 2.1892 -0.493509 1.96346 -0.547223 1.73571 -0.425389L 2.20742 0.456368C 2.13629 0.494419 2.07012 0.501282 2.0281 0.499814C 1.98873 0.498439 1.96619 0.489894 1.96559 0.489675C 1.96386 0.489038 1.97228 0.492064 1.9916 0.503485C 2.01033 0.514555 2.03488 0.530895 2.06511 0.553813C 2.19145 0.649591 2.35973 0.816219 2.54067 1.03659C 2.9071 1.4829 3.24355 2.04846 3.36252 2.47855C 3.42417 2.70144 3.40338 2.8023 3.39413 2.82399C 3.39311 2.82639 3.39346 2.82486 3.39601 2.8218C 3.39866 2.81862 3.40045 2.81766 3.39882 2.81871C 3.39522 2.82104 3.36485 2.83922 3.28222 2.84756C 3.1057 2.86537 2.78668 2.82918 2.26625 2.65274C 1.75531 2.4795 1.08927 2.18483 0.235388 1.72921L -0.235375 2.61147ZM 1.73571 -0.425389C 1.36719 -0.228247 1.05011 -0.00513902 0.896978 0.27805C 0.808669 0.441364 0.768677 0.636908 0.821808 0.84027C 0.871546 1.03065 0.987371 1.1676 1.09215 1.25927C 1.29049 1.43281 1.56747 1.54577 1.80225 1.62548C 2.05192 1.71024 2.33079 1.78151 2.57797 1.84332C 2.83637 1.90793 3.0522 1.96044 3.21428 2.01274C 3.29562 2.03899 3.3409 2.05827 3.36097 2.06888C 3.40721 2.09334 3.305 2.05674 3.24641 1.91928C 3.20745 1.82789 3.20046 1.72004 3.23368 1.61899C 3.26259 1.53102 3.3109 1.48142 3.32792 1.46546C 3.35569 1.43943 3.35426 1.45214 3.26219 1.49004C 3.09259 1.55984 2.77388 1.65284 2.23617 1.77146L 2.45159 2.74798C 2.99616 2.62785 3.38739 2.51989 3.64279 2.41478C 3.76323 2.36521 3.90307 2.29697 4.01182 2.19504C 4.06933 2.14112 4.14306 2.05482 4.18368 1.93124C 4.2286 1.79457 4.21961 1.65218 4.16631 1.52715C 4.07903 1.3224 3.89877 1.22207 3.82852 1.18492C 3.73211 1.13392 3.62247 1.09369 3.52138 1.06107C 3.31861 0.995635 3.05958 0.932958 2.82055 0.873189C 2.5703 0.810616 2.32918 0.748314 2.12374 0.678564C 1.90341 0.603762 1.79018 0.541274 1.75063 0.506674C 1.73647 0.494282 1.77144 0.518993 1.78933 0.587492C 1.81062 0.668977 1.7878 0.733005 1.77661 0.753696C 1.77144 0.763271 1.78461 0.735439 1.86015 0.675025C 1.93261 0.617078 2.04381 0.543891 2.20742 0.456368L 1.73571 -0.425389Z"/>
<path id="path2_stroke" d="M 1.75873 0.647514C 1.51423 0.471912 1.26972 0.296309 1.02521 0.120705C 0.780708 -0.0548979 0.5362 -0.230502 0.291692 -0.406105L -0.291644 0.406125C -0.0471374 0.581728 0.197369 0.757331 0.441875 0.932934C 0.686382 1.10854 0.930889 1.28414 1.1754 1.45974L 1.75873 0.647514Z"/>
<path id="path3_stroke" d="M 1.14687 1.09397C 0.91178 0.651161 0.6767 0.20836 0.441609 -0.234456L -0.441635 0.234458C -0.206548 0.677267 0.0285365 1.12008 0.263627 1.56289L 1.14687 1.09397Z"/>
<path id="path4_stroke" d="M -0.311678 0.39096C 0.36285 0.928693 0.790218 1.34042 1.09778 1.63097C 1.24693 1.77186 1.3876 1.90344 1.5151 2.00015C 1.63814 2.09348 1.81339 2.20616 2.03453 2.22733C 2.28029 2.25086 2.47701 2.15414 2.62034 2.04904C 2.75297 1.95178 2.88138 1.81656 3.0042 1.68087C 3.26529 1.39241 3.59792 0.991566 4.16 0.42622L 3.45085 -0.278836C 2.86693 0.308476 2.4972 0.750838 2.2628 1.0098C 2.13788 1.14782 2.07027 1.21236 2.029 1.24262C 1.99842 1.26504 2.04336 1.22361 2.12985 1.23189C 2.19172 1.23781 2.20024 1.26471 2.11945 1.20343C 2.04313 1.14554 1.94291 1.05369 1.78449 0.904033C 1.47692 0.613485 1.02246 0.175656 0.311681 -0.390976L -0.311678 0.39096Z"/>
<path id="path5_stroke" d="M -0.495096 0.0699578C -0.407163 0.692131 -0.319233 1.31431 -0.231303 1.93649C -0.143372 2.55867 -0.0554414 3.18084 0.0324918 3.80302L 1.02265 3.66308C 0.934719 3.04091 0.846789 2.41873 0.758858 1.79655C 0.670928 1.17437 0.582997 0.552193 0.495064 -0.0699832L -0.495096 0.0699578Z"/>
<path id="path6_stroke" d="M -0.380694 0.324099C -0.20068 0.535556 -0.0206774 0.747016 0.159332 0.958484C 0.33934 1.16995 0.519355 1.38142 0.699384 1.5929L 1.46083 0.944673C 1.28082 0.733216 1.10082 0.521756 0.920806 0.310288C 0.740799 0.0988223 0.560784 -0.112652 0.380755 -0.324126L -0.380694 0.324099Z"/>
<path id="path7_fill" fill-rule="evenodd" d="M 14 7C 14 10.866 10.866 14 7 14C 3.134 14 4.39453e-06 10.866 4.39453e-06 7C 4.39453e-06 3.134 3.134 2.56348e-06 7 2.56348e-06C 10.866 2.56348e-06 14 3.134 14 7Z"/>
<path id="path8_fill" fill-rule="evenodd" d="M 9.45601 4.728C 9.45601 7.339 7.33901 9.456 4.72801 9.456C 2.11701 9.456 1.26953e-05 7.339 1.26953e-05 4.728C 1.26953e-05 2.116 2.11701 6.10352e-06 4.72801 6.10352e-06C 7.33901 6.10352e-06 9.45601 2.116 9.45601 4.728Z"/>
<path id="path9_fill" fill-rule="evenodd" d="M 19.063 9.53099C 19.063 14.796 14.796 19.063 9.53199 19.063C 4.26799 19.063 8.30078e-06 14.796 8.30078e-06 9.53099C 8.30078e-06 4.26799 4.26799 -1.26953e-05 9.53199 -1.26953e-05C 14.796 -1.26953e-05 19.063 4.26799 19.063 9.53099Z"/>
<path id="path10_fill" fill-rule="evenodd" d="M 14 7.00001C 14 10.866 10.866 14 7 14C 3.134 14 4.39453e-06 10.866 4.39453e-06 7.00001C 4.39453e-06 3.13401 3.134 1.00098e-05 7 1.00098e-05C 10.866 1.00098e-05 14 3.13401 14 7.00001Z"/>
<path id="path11_fill" fill-rule="evenodd" d="M 12.2208 0.453005L 15.7177 6.84699C 15.7977 6.99399 15.9177 7.114 16.0637 7.194L 22.4578 10.691C 23.0628 11.021 23.0628 11.89 22.4578 12.221L 16.0637 15.717C 15.9177 15.797 15.7977 15.917 15.7177 16.064L 12.2208 22.458C 11.8898 23.063 11.0218 23.063 10.6908 22.458L 7.19375 16.064C 7.11375 15.917 6.99375 15.797 6.84775 15.717L 0.453764 12.221C -0.151236 11.89 -0.151236 11.021 0.453764 10.691L 6.84775 7.194C 6.99375 7.114 7.11375 6.99399 7.19375 6.84699L 10.6908 0.453005C 11.0218 -0.150995 11.8898 -0.150995 12.2208 0.453005Z"/>
<path id="path12_fill" fill-rule="evenodd" d="M 17.554 0.651752L 22.578 9.83576C 22.692 10.0458 22.865 10.2187 23.075 10.3337L 32.26 15.3568C 33.128 15.8318 33.128 17.0787 32.26 17.5537L 23.075 22.5777C 22.865 22.6927 22.692 22.8658 22.578 23.0748L 17.554 32.2598C 17.08 33.1288 15.832 33.1288 15.357 32.2598L 10.334 23.0748C 10.219 22.8658 10.046 22.6927 9.83601 22.5777L 0.651009 17.5537C -0.216991 17.0787 -0.216991 15.8318 0.651009 15.3568L 9.83601 10.3337C 10.046 10.2187 10.219 10.0458 10.334 9.83576L 15.357 0.651752C 15.832 -0.217248 17.08 -0.217248 17.554 0.651752Z"/>
<path id="path13_fill" fill-rule="evenodd" d="M 9.02051 0.334508L 11.6015 5.0535C 11.6605 5.1615 11.7495 5.25051 11.8565 5.30951L 16.5765 7.89152C 17.0235 8.13552 17.0235 8.77651 16.5765 9.02051L 11.8565 11.6015C 11.7495 11.6605 11.6605 11.7495 11.6015 11.8575L 9.02051 16.5765C 8.77551 17.0235 8.13551 17.0235 7.89151 16.5765L 5.31049 11.8575C 5.25149 11.7495 5.16251 11.6605 5.05451 11.6015L 0.334507 9.02051C -0.111493 8.77651 -0.111493 8.13552 0.334507 7.89152L 5.05451 5.30951C 5.16251 5.25051 5.25149 5.1615 5.31049 5.0535L 7.89151 0.334508C 8.13551 -0.111492 8.77551 -0.111492 9.02051 0.334508Z"/>
<path id="path14_fill" fill-rule="evenodd" d="M 346.1 205.575C 344.585 198.268 325.979 197.796 316.357 199.169L 316.568 200.654L 316.355 199.169C 314.533 199.428 311.799 199.819 309.019 200.537C 312.739 187.779 307.35 172.617 307.089 171.892L 306.996 171.639L 306.822 171.433C 296.475 159.227 283.01 147.55 276.262 151.392C 268.193 155.983 275.766 179.731 278.279 186.901C 281.953 197.385 287.525 209.506 294.332 212.411C 293.334 213.414 292.273 214.545 291.135 215.762C 285.095 222.217 276.816 231.06 268.536 229.473C 265.319 228.857 262.436 226.98 249.529 206.156C 242.531 194.865 237.612 186.126 233.66 179.104C 231.89 175.961 230.219 172.992 228.638 170.287C 228.513 170.073 215.975 148.709 202.892 133.469C 191.42 120.105 172.849 109.121 151.94 103.332C 139.735 99.9533 122.538 97.1653 102.982 99.7132C 102.744 98.9873 102.509 98.2603 102.269 97.5373L 102.152 97.2723C 101.931 96.8813 79.7885 57.5962 53.5975 6.32525C 51.1645 1.56625 48.1025 -0.723736 45.3995 0.202264C 42.6125 1.15726 41.5655 5.02425 42.5875 10.5622L 43.2115 126.084C 35.1185 132.817 27.7975 140.624 21.5505 149.334C 6.02848 170.977 -1.53251 196.359 0.258487 220.806C 2.94649 257.495 25.5605 289.094 67.4715 314.726C 95.7735 332.034 125.128 337.236 150.199 337.236C 178.307 337.236 201.029 330.693 210.806 327.341C 218.425 324.319 225.606 320.927 232.373 317.197C 240.992 326.541 250.267 331.932 257.633 331.931C 258.993 331.931 260.291 331.747 261.506 331.371C 265.512 330.129 270.494 326.203 271.486 314.554C 272.174 306.487 269.971 298.429 266.945 291.49C 273.461 284.967 279.244 277.895 284.258 270.271C 291.195 259.719 297.096 247.35 300.873 235.443C 302.989 228.77 304.283 222.742 304.651 218.099C 311.111 222.552 320.132 223.046 323.81 223.046C 324.747 223.046 325.339 223.015 325.453 223.007L 325.706 222.993L 325.939 222.896C 331.895 220.423 337.181 217.434 340.822 214.476C 343.44 212.351 346.836 209.115 346.1 205.575Z"/>
<path id="path15_fill" fill-rule="evenodd" d="M 349.102 208.575L 352.039 207.965C 351.813 206.865 351.338 205.849 350.715 204.989C 349.614 203.477 348.127 202.425 346.498 201.609C 344.043 200.396 341.173 199.677 338.112 199.208C 335.053 198.746 331.807 198.559 328.679 198.559C 325.118 198.559 321.721 198.802 318.935 199.199L 315.968 199.622L 316.598 204.074L 322.538 203.23L 321.902 198.775L 318.933 199.199C 317.101 199.461 314.25 199.863 311.27 200.632L 312.02 203.536L 314.9 204.376C 315.949 200.774 316.324 197.088 316.325 193.585C 316.323 188.468 315.522 183.728 314.704 180.167C 313.883 176.606 313.038 174.227 312.91 173.87L 312.114 172.496C 307.523 167.084 302.348 161.774 297.266 157.722C 294.721 155.696 292.201 153.981 289.721 152.728C 287.24 151.485 284.79 150.66 282.269 150.648C 280.742 150.643 279.172 150.988 277.778 151.786C 276.734 152.377 275.855 153.187 275.173 154.1C 274.146 155.476 273.537 157.051 273.16 158.698C 272.785 160.35 272.642 162.096 272.641 163.911C 272.648 168.812 273.691 174.27 274.919 179.187C 276.151 184.095 277.586 188.431 278.448 190.893C 280.325 196.243 282.682 202.032 285.53 206.993C 286.958 209.474 288.508 211.753 290.239 213.68C 291.973 215.601 293.894 217.199 296.155 218.171L 297.333 215.411L 295.207 213.295C 294.163 214.344 293.085 215.494 291.946 216.711C 289.173 219.679 286.005 223.043 282.754 225.571C 281.132 226.836 279.497 227.885 277.934 228.59C 276.367 229.299 274.896 229.661 273.523 229.66C 273.044 229.66 272.573 229.617 272.102 229.527C 271.489 229.399 271.221 229.325 270.635 228.967C 270.203 228.693 269.605 228.217 268.802 227.38C 267.596 226.129 265.953 224.085 263.73 220.904C 261.505 217.722 258.692 213.403 255.08 207.576C 248.115 196.338 243.227 187.653 239.275 180.633C 237.506 177.489 235.827 174.508 234.228 171.773C 234.141 171.624 230.959 166.201 226.131 158.864C 221.303 151.528 214.85 142.299 208.17 134.515C 202.176 127.535 194.414 121.262 185.483 115.978C 176.551 110.695 166.446 106.405 155.742 103.441C 146.641 100.922 134.838 98.723 121.34 98.723C 116.309 98.723 111.042 99.029 105.595 99.738L 105.983 102.713L 108.834 101.78C 108.598 101.06 108.362 100.329 108.117 99.592C 107.559 98.432 85.431 59.175 59.269 7.96001C 58.105 5.69001 56.784 3.824 55.225 2.411C 54.444 1.707 53.595 1.116 52.656 0.686998C 51.72 0.258998 50.681 -0.000983501 49.608 1.64986e-05C 48.873 -0.000983501 48.129 0.123 47.427 0.364C 46.507 0.677 45.658 1.195 44.965 1.851C 43.918 2.838 43.231 4.08502 42.808 5.41002C 42.385 6.74202 42.206 8.177 42.204 9.713C 42.205 11.093 42.353 12.558 42.638 14.107L 45.588 13.562L 42.588 13.578L 43.212 129.1L 46.212 129.084L 44.294 126.778C 36.008 133.671 28.512 141.663 22.113 150.586C 7.74901 170.617 0.00200415 193.818 4.15039e-06 216.711C 4.15039e-06 219.154 0.0890024 221.594 0.267002 224.025C 1.645 242.922 8.19601 260.57 19.717 276.658C 31.238 292.754 47.691 307.309 68.907 320.285C 97.778 337.943 127.723 343.239 153.2 343.236C 181.775 343.231 204.788 336.601 214.78 333.179C 222.646 330.062 229.943 326.616 236.822 322.824L 235.374 320.197L 233.169 322.231C 237.648 327.085 242.325 330.955 246.961 333.66C 251.598 336.354 256.21 337.921 260.631 337.931L 260.631 334.943L 260.275 337.91C 260.414 337.927 260.532 336.938 260.631 334.943L 260.275 337.91C 262.263 337.931 263.866 337.71 265.396 337.236C 267.912 336.469 270.803 334.769 273.06 331.62C 275.327 328.476 276.949 324.018 277.476 317.809C 277.569 316.716 277.614 315.627 277.614 314.544C 277.608 306.921 275.451 299.619 272.696 293.292L 269.946 294.491L 272.069 296.61C 278.722 289.948 284.638 282.717 289.765 274.919C 296.863 264.119 302.863 251.543 306.734 239.35C 308.899 232.511 310.243 226.318 310.643 221.337L 307.652 221.099L 305.95 223.569C 309.681 226.132 313.924 227.452 317.706 228.188C 321.49 228.918 324.837 229.045 326.811 229.046C 327.313 229.046 327.726 229.038 328.035 229.028C 328.244 229.021 328.695 228.998 329.387 228.958C 336.26 226.1 341.743 223.024 345.715 219.805C 346.978 218.775 348.481 217.467 349.767 215.827C 350.409 215.003 351 214.09 351.45 213.05C 351.899 212.014 352.204 210.836 352.203 209.567C 352.204 209.04 352.15 208.502 352.039 207.965L 349.102 208.575L 346.164 209.184C 346.203 209.872 346.132 210.229 345.942 210.67C 345.663 211.328 345.098 212.135 344.366 212.92C 343.638 213.708 342.763 214.474 341.932 215.148C 338.622 217.844 333.533 220.747 327.79 223.125L 328.707 225.993L 328.534 222.998C 327.597 223.039 327.246 223.046 326.811 223.046C 325.107 223.047 322.103 222.928 318.843 222.297C 315.58 221.673 312.083 220.519 309.355 218.629L 305.074 215.678L 304.662 220.861C 304.323 225.165 303.081 231.029 301.014 237.536C 297.331 249.157 291.53 261.319 284.752 271.623C 279.853 279.073 274.199 285.986 267.823 292.371L 266.38 293.817L 267.196 295.69C 269.739 301.511 271.619 308.075 271.614 314.544C 271.614 315.465 271.576 316.383 271.498 317.299C 271.033 322.739 269.668 326.069 268.194 328.11C 266.711 330.147 265.107 331.03 263.619 331.505C 262.718 331.784 261.725 331.931 260.633 331.931L 260.633 334.931L 260.99 331.952C 260.898 331.941 260.778 332.917 260.631 334.88L 260.631 331.931L 260.631 334.88L 260.631 331.931C 257.686 331.941 253.979 330.813 249.983 328.476C 245.986 326.149 241.718 322.653 237.579 318.163L 235.985 316.434L 233.926 317.569C 227.272 321.238 220.205 324.575 212.701 327.553L 213.808 330.341L 212.835 327.503C 203.273 330.784 180.842 337.24 153.2 337.236C 128.534 337.233 99.771 332.126 72.037 315.167C 51.342 302.511 35.533 288.45 24.597 273.166C 13.661 257.875 7.56101 241.379 6.25101 223.587C 6.08301 221.303 6 219.01 6 216.711C 5.998 195.178 13.304 173.162 26.989 154.083C 33.083 145.585 40.23 137.963 48.131 131.39L 49.22 130.484L 48.587 13.279C 48.309 11.774 48.204 10.66 48.204 9.713C 48.199 8.305 48.448 7.28202 48.718 6.74202C 49.026 6.33135 49.3227 6.08402 49.608 6.00002C 50.572 6.32602 51.183 6.76102 51.85 7.52202C 52.519 8.27902 53.241 9.34602 53.926 10.69C 80.147 62.018 102.305 101.33 102.54 101.747L 105.153 100.272L 102.41 101.487L 105.27 100.537L 102.423 101.482C 102.658 102.19 102.892 102.914 103.132 103.647L 103.905 106.009L 106.37 105.688C 111.545 105.014 116.552 104.723 121.34 104.723C 134.184 104.722 145.46 106.82 154.141 109.223C 164.345 112.048 173.979 116.144 182.428 121.142C 190.879 126.138 198.139 132.039 203.617 138.423C 210.02 145.88 216.377 154.953 221.119 162.162C 225.862 169.37 229.011 174.736 229.047 174.798C 230.612 177.475 232.277 180.433 234.047 183.576C 238 190.599 242.949 199.393 249.98 210.737C 256.473 221.204 260.445 226.947 263.403 230.36C 264.886 232.064 266.141 233.216 267.415 234.029C 268.678 234.847 269.977 235.239 270.973 235.419C 271.826 235.583 272.68 235.66 273.523 235.66C 275.953 235.659 278.264 235.026 280.407 234.057C 283.624 232.595 286.524 230.383 289.182 228C 291.835 225.615 294.24 223.04 296.326 220.811C 297.463 219.597 298.507 218.484 299.459 217.528L 302.583 214.391L 298.511 212.652C 297.368 212.171 296.041 211.165 294.7 209.668C 292.681 207.432 290.668 204.159 288.871 200.491C 287.068 196.822 285.46 192.76 284.11 188.909C 283.289 186.566 281.905 182.377 280.738 177.727C 279.568 173.085 278.634 167.949 278.641 163.911C 278.636 161.927 278.872 160.225 279.286 159.058C 279.49 158.472 279.73 158.023 279.974 157.699C 281.138 156.781 281.588 156.652 282.269 156.648C 283.373 156.635 285.056 157.085 287.018 158.084C 289.968 159.566 293.497 162.193 297.055 165.425C 300.62 168.655 304.24 172.486 307.535 176.373L 309.997 174.639L 307.177 175.662C 307.335 176.096 308.108 178.263 308.857 181.514C 309.607 184.763 310.327 189.1 310.325 193.585C 310.326 196.656 309.988 199.791 309.14 202.697L 307.663 207.76L 312.769 206.441C 315.349 205.774 317.967 205.396 319.78 205.139L 319.356 202.169L 316.387 202.593L 316.598 204.077L 322.539 203.234L 322.329 201.749L 319.358 202.169L 319.782 205.139C 322.23 204.789 325.397 204.558 328.679 204.559C 333.068 204.552 337.702 204.984 341.089 205.957C 342.78 206.434 344.142 207.054 344.972 207.663C 345.389 207.965 345.673 208.255 345.851 208.503C 345.97 208.67 347.054 208.694 349.102 208.575L 294.626 216.555L 349.102 208.575Z"/>
<path id="path16_stroke" d="M 4.922 2.18245L 4.86678 2.67939L 5.21005 1.77376L 4.922 2.18245ZM 1.69678 1.82405L 1.22041 1.97594L 1.319 2.28515L 1.64156 2.321L 1.69678 1.82405ZM 1.40869 0.920521L 1.88507 0.768633L 1.87354 0.732479L 1.85669 0.698478L 1.40869 0.920521ZM 1.27863 0.6581L 1.36155 0.165023L 0.395694 0.00260228L 0.830637 0.880143L 1.27863 0.6581ZM 2.16224 0.80669L 2.59842 0.56227L 2.48134 0.353332L 2.24515 0.313613L 2.16224 0.80669ZM 2.55677 1.51076L 2.12053 1.75521L 2.12426 1.76164L 2.55677 1.51076ZM 3.21588 2.64705L 2.78338 2.89793L 2.90194 3.10232L 3.13512 3.14049L 3.21588 2.64705ZM 3.90277 2.75948L 4.29053 3.07514L 4.83565 2.40552L 3.98354 2.26605L 3.90277 2.75948ZM 3.28028 3.52416L 2.89252 3.2085L 2.88563 3.21695L 2.87912 3.2257L 3.28028 3.52416ZM 2.72498 4.27053L 2.39443 4.64568L 2.80193 5.00473L 3.12613 4.56898L 2.72498 4.27053ZM 2.08271 3.70461L 1.59237 3.80245L 1.62543 3.96809L 1.75216 4.07976L 2.08271 3.70461ZM 1.89411 2.75948L 1.77146 2.27476L 1.31078 2.39132L 1.40377 2.85732L 1.89411 2.75948ZM 2.33844 2.64705L 2.7484 2.36081L 2.55065 2.0776L 2.2158 2.16233L 2.33844 2.64705ZM 2.72498 3.20064L 3.22498 3.20064L 3.22498 3.04336L 3.13493 2.9144L 2.72498 3.20064ZM 2.72498 3.52416L 2.34167 3.84521L 3.22498 4.89978L 3.22498 3.52416L 2.72498 3.52416ZM 0.617923 1.00856L 1.00123 0.687508L 0.510528 0.101664L 0.170232 0.785915L 0.617923 1.00856ZM 0.368168 1.51076L 0.368168 2.01076L 0.677925 2.01076L 0.815859 1.73341L 0.368168 1.51076ZM 3.60547e-06 1.51076L 3.60547e-06 1.01076L -1.27338 1.01076L -0.340199 1.87718L 3.60547e-06 1.51076ZM 0.889347 2.33648L 0.549144 2.70289L 0.561021 2.71392L 0.573586 2.72415L 0.889347 2.33648ZM 1.40869 2.75948L 1.87478 2.57847L 1.82694 2.45527L 1.72446 2.3718L 1.40869 2.75948ZM 1.58002 3.20064L 2.08002 3.20064L 2.08002 3.10696L 2.04611 3.01964L 1.58002 3.20064ZM 1.58002 3.70461L 1.66131 4.19796L 2.08002 4.12897L 2.08002 3.70461L 1.58002 3.70461ZM 0.106205 3.94744L -0.384899 3.85354L -0.519454 4.55726L 0.18749 4.44079L 0.106205 3.94744ZM 0.70673 0.80669L 1.20253 0.741987L 0.215626 0.712789L 0.70673 0.80669ZM 1.12065 0.408682C 1.54955 0.710969 2.24366 1.12409 2.90943 1.52076C 3.591 1.92685 4.24425 2.31648 4.63396 2.59115L 5.21005 1.77376C 4.78114 1.47147 4.08704 1.05835 3.42127 0.661681C 2.73969 0.255594 2.08645 -0.134041 1.69674 -0.408705L 1.12065 0.408682ZM 4.97722 1.68551L 1.752 1.32711L 1.64156 2.321L 4.86678 2.67939L 4.97722 1.68551ZM 2.17315 1.67217L 1.88507 0.768633L 0.932323 1.07241L 1.22041 1.97594L 2.17315 1.67217ZM 1.85669 0.698478L 1.72662 0.436058L 0.830637 0.880143L 0.960703 1.14256L 1.85669 0.698478ZM 1.19571 1.15118L 2.07932 1.29977L 2.24515 0.313613L 1.36155 0.165023L 1.19571 1.15118ZM 1.72605 1.05111L 2.12058 1.75518L 2.99295 1.26634L 2.59842 0.56227L 1.72605 1.05111ZM 2.12426 1.76164L 2.78338 2.89793L 3.64839 2.39617L 2.98927 1.25988L 2.12426 1.76164ZM 3.13512 3.14049L 3.82201 3.25291L 3.98354 2.26605L 3.29665 2.15362L 3.13512 3.14049ZM 3.51501 2.44382L 2.89252 3.2085L 3.66804 3.83982L 4.29053 3.07514L 3.51501 2.44382ZM 2.87912 3.2257L 2.32383 3.97207L 3.12613 4.56898L 3.68143 3.82262L 2.87912 3.2257ZM 3.05553 3.89538L 2.41326 3.32946L 1.75216 4.07976L 2.39443 4.64568L 3.05553 3.89538ZM 2.57304 3.60676L 2.38444 2.66163L 1.40377 2.85732L 1.59237 3.80245L 2.57304 3.60676ZM 2.01675 3.2442L 2.46109 3.13178L 2.2158 2.16233L 1.77146 2.27476L 2.01675 3.2442ZM 1.92849 2.9333L 2.31502 3.48689L 3.13493 2.9144L 2.7484 2.36081L 1.92849 2.9333ZM 2.22498 3.20064L 2.22498 3.52416L 3.22498 3.52416L 3.22498 3.20064L 2.22498 3.20064ZM 3.10828 3.2031L 1.00123 0.687508L 0.234618 1.32962L 2.34167 3.84521L 3.10828 3.2031ZM 0.170232 0.785915L -0.0795237 1.28811L 0.815859 1.73341L 1.06561 1.23121L 0.170232 0.785915ZM 0.368168 1.01076L 3.60547e-06 1.01076L 3.60547e-06 2.01076L 0.368168 2.01076L 0.368168 1.01076ZM -0.340199 1.87718L 0.549144 2.70289L 1.22955 1.97006L 0.340206 1.14434L -0.340199 1.87718ZM 0.573586 2.72415L 1.09293 3.14716L 1.72446 2.3718L 1.20511 1.9488L 0.573586 2.72415ZM 0.942608 2.94048L 1.11393 3.38165L 2.04611 3.01964L 1.87478 2.57847L 0.942608 2.94048ZM 1.08002 3.20064L 1.08002 3.70461L 2.08002 3.70461L 2.08002 3.20064L 1.08002 3.20064ZM 1.49874 3.21126L 0.0249199 3.45409L 0.18749 4.44079L 1.66131 4.19796L 1.49874 3.21126ZM 0.597308 4.04134L 1.19783 0.900591L 0.215626 0.712789L -0.384899 3.85354L 0.597308 4.04134ZM 0.210934 0.871393L 0.537045 3.37026L 1.52864 3.24086L 1.20253 0.741987L 0.210934 0.871393Z"/>
<path id="path17_stroke" d="M 11.2002 1.55264L 11.2647 2.04847L 11.2002 1.55264ZM 4.01794 2.92086L 4.08831 3.41589L 4.01794 2.92086ZM 1.02196 3.77124L 0.616691 4.06407L 0.616693 4.06408L 1.02196 3.77124ZM 11.9055 1.82626L 12.0431 2.30697L 11.9055 1.82626ZM 11.4175 0.79681L 11.4971 1.29043L 11.5052 1.28912L 11.5133 1.28754L 11.4175 0.79681ZM 0.596854 2.54153L 0.517262 2.04791L 0.50913 2.04922L 0.501046 2.0508L 0.596854 2.54153ZM 2.99139 2.44189L 2.51636 2.28586L 2.51636 2.28586L 2.99139 2.44189ZM 0.0106113 2.06945L 0.403348 2.3789L 0.403349 2.3789L 0.0106113 2.06945ZM 12.463 0.000392735L 12.4543 -0.499531L 12.4543 -0.499531L 12.463 0.000392735ZM 12.1108 0.544582L 12.3783 0.122168L 12.2493 0.0404685L 12.0966 0.0447817L 12.1108 0.544582ZM 0.0964807 4.81624C 8.86532 3.28758 12.9078 2.43229 14.1524 2.03079C 14.3088 1.98033 14.4476 1.9289 14.5524 1.87475C 14.5995 1.85039 14.6776 1.80673 14.7466 1.73798C 14.8 1.68481 14.9963 1.45871 14.8692 1.15424C 14.8175 1.03036 14.732 0.957116 14.6771 0.919485C 14.621 0.88102 14.5672 0.859239 14.5313 0.846826C 14.4601 0.822177 14.389 0.810911 14.3362 0.80461C 14.2255 0.791416 14.0899 0.788589 13.9456 0.790908C 13.3655 0.800227 12.3404 0.900195 11.1358 1.05681L 11.2647 2.04847C 12.4675 1.89208 13.4434 1.79911 13.9616 1.79078C 14.0918 1.78869 14.1744 1.7924 14.2177 1.79757C 14.2419 1.80045 14.2317 1.80133 14.2044 1.79188C 14.1905 1.78706 14.1545 1.77365 14.1117 1.74433C 14.0702 1.71584 13.9936 1.65252 13.9464 1.53936C 13.8282 1.25632 14.0155 1.05482 14.0409 1.02954C 14.0819 0.988666 14.113 0.976162 14.0933 0.986348C 14.0644 1.0013 13.9898 1.03251 13.8454 1.07909C 12.6833 1.45397 8.72362 2.2972 -0.0752581 3.83109L 0.0964807 4.81624ZM 11.1358 1.05681C 9.9927 1.20543 8.73589 1.47269 7.50339 1.73782C 6.26145 2.00499 5.04463 2.26989 3.94757 2.42584L 4.08831 3.41589C 5.22791 3.25389 6.48318 2.98017 7.7137 2.71546C 8.95366 2.44872 10.1697 2.19084 11.2647 2.04847L 11.1358 1.05681ZM 3.94757 2.42584C 3.01396 2.55856 2.24506 2.80629 1.70634 3.00609C 1.44987 3.10121 1.21266 3.19853 1.08995 3.24554C 1.05607 3.25852 1.02915 3.26844 1.00777 3.27583C 0.997241 3.27947 0.989039 3.28216 0.982822 3.28409C 0.979765 3.28504 0.977429 3.28573 0.975746 3.28621C 0.974916 3.28645 0.974291 3.28662 0.97386 3.28674C 0.973428 3.28686 0.973225 3.28691 0.973239 3.2869C 0.973252 3.2869 0.973525 3.28683 0.974042 3.28671C 0.974557 3.28659 0.975371 3.2864 0.976463 3.28616C 0.978559 3.28571 0.982207 3.28496 0.987185 3.28414C 0.995619 3.28274 1.01584 3.27975 1.04379 3.27957C 1.06247 3.27944 1.27998 3.27461 1.42724 3.4784L 0.616693 4.06408C 0.772224 4.27932 1.00654 4.27983 1.05032 4.27954C 1.12412 4.27906 1.18752 4.26428 1.2208 4.25578C 1.29359 4.23718 1.37579 4.2069 1.44766 4.17937C 1.616 4.11488 1.79136 4.04112 2.05408 3.94368C 2.55374 3.75837 3.24973 3.53509 4.08831 3.41589L 3.94757 2.42584ZM 1.42724 3.4784C 1.18324 3.14072 1.20602 3.00701 1.20858 2.99716C 1.20902 2.99543 1.21199 2.97904 1.24868 2.94725C 1.28986 2.91156 1.36472 2.86501 1.4907 2.81732C 1.74655 2.72047 2.12619 2.65064 2.62477 2.60868C 3.11647 2.5673 3.6918 2.5553 4.32294 2.55874C 4.95344 2.56217 5.62905 2.58087 6.3224 2.59937C 7.01339 2.61781 7.72095 2.63602 8.40537 2.63779C 9.75866 2.64129 11.0816 2.58206 12.0431 2.30697L 11.768 1.34555C 10.9578 1.57735 9.76476 1.6413 8.40796 1.63779C 7.73734 1.63605 7.04135 1.6182 6.34907 1.59973C 5.65914 1.58132 4.97177 1.56225 4.32838 1.55875C 3.68562 1.55525 3.07614 1.56716 2.54091 1.6122C 2.01258 1.65666 1.52317 1.73578 1.13667 1.88209C 0.762179 2.02385 0.362161 2.27749 0.240613 2.74607C 0.122993 3.1995 0.321088 3.65497 0.616691 4.06407L 1.42724 3.4784ZM 12.0431 2.30697C 12.2169 2.25723 12.355 2.14478 12.4395 1.99584C 12.5165 1.86014 12.5352 1.72006 12.5357 1.61334C 12.5366 1.40373 12.4681 1.19449 12.3893 1.02954C 12.3082 0.859762 12.1903 0.682658 12.042 0.545367C 11.9109 0.423976 11.6524 0.24151 11.3217 0.306075L 11.5133 1.28754C 11.44 1.30185 11.3856 1.28487 11.3642 1.27575C 11.3452 1.26763 11.3457 1.26349 11.3626 1.27918C 11.3978 1.31177 11.4471 1.37698 11.487 1.46061C 11.5058 1.49998 11.5191 1.53637 11.5272 1.56619C 11.5357 1.59762 11.5357 1.61156 11.5357 1.60887C 11.5357 1.60672 11.5359 1.59596 11.5397 1.57874C 11.5435 1.5614 11.5518 1.53405 11.5698 1.50226C 11.5884 1.46946 11.6159 1.43479 11.6538 1.40476C 11.6919 1.37462 11.7319 1.35585 11.768 1.34555L 12.0431 2.30697ZM 11.3379 0.303186L 0.517262 2.04791L 0.676446 3.03515L 11.4971 1.29043L 11.3379 0.303186ZM 0.501046 2.0508C 0.437169 2.06327 0.340808 2.08606 0.249647 2.13653C 0.18305 2.17339 -0.0983969 2.35742 -0.0253593 2.71294C 0.00252325 2.84867 0.0758573 2.93826 0.120474 2.98362C 0.167636 3.03156 0.215862 3.06377 0.249393 3.08375C 0.316521 3.12374 0.387575 3.15142 0.444425 3.17072C 0.669513 3.24714 1.01708 3.30543 1.36854 3.33227C 1.7241 3.35942 2.13791 3.35869 2.49572 3.29027C 2.67393 3.25619 2.86465 3.20052 3.03272 3.10454C 3.20271 3.00746 3.38433 2.84783 3.46642 2.59792L 2.51636 2.28586C 2.53612 2.22569 2.57166 2.21626 2.53681 2.23617C 2.50002 2.25717 2.42712 2.28527 2.3079 2.30807C 2.07086 2.3534 1.75461 2.35884 1.44469 2.33517C 1.13067 2.31119 0.877351 2.26164 0.765921 2.22381C 0.738642 2.21455 0.74209 2.21326 0.761257 2.22468C 0.770807 2.23037 0.799964 2.24839 0.833358 2.28234C 0.864207 2.31369 0.929075 2.38949 0.954183 2.51171C 1.02167 2.84022 0.757444 2.99842 0.733954 3.01142C 0.685899 3.03802 0.658533 3.03893 0.692662 3.03227L 0.501046 2.0508ZM 3.46642 2.59792C 3.51042 2.46397 3.51942 2.30307 3.45371 2.14276C 3.39132 1.99056 3.28328 1.89203 3.19207 1.83167C 3.02442 1.72073 2.81806 1.67575 2.66019 1.65182C 2.32282 1.60067 1.88024 1.60373 1.48234 1.61605C 1.0551 1.62928 0.690316 1.6523 0.406511 1.65541C 0.339933 1.65614 0.285215 1.65557 0.241903 1.65374C 0.220455 1.65284 0.203631 1.65169 0.19089 1.65051C 0.177719 1.64928 0.172044 1.6483 0.1721 1.64831C 0.172357 1.64836 0.175444 1.64891 0.180777 1.65026C 0.185937 1.65157 0.195334 1.65415 0.207716 1.65863C 0.225203 1.66496 0.285129 1.68767 0.347757 1.74522C 0.421434 1.81293 0.50269 1.93557 0.499944 2.10199C 0.49755 2.24706 0.431519 2.34315 0.403348 2.3789L -0.382126 1.76001C -0.424335 1.81358 -0.497285 1.92581 -0.49992 2.08549C -0.502907 2.2665 -0.415215 2.40221 -0.328869 2.48155C -0.253573 2.55074 -0.174747 2.58369 -0.132572 2.59895C -0.0849929 2.61617 -0.0403329 2.62611 -0.00597168 2.63233C 0.118351 2.65482 0.27702 2.65689 0.417465 2.65535C 0.705271 2.6522 1.14025 2.62712 1.5133 2.61557C 1.91569 2.60311 2.27393 2.60469 2.51029 2.64052C 2.63928 2.66008 2.66302 2.6807 2.64023 2.66562C 2.62146 2.6532 2.56454 2.61015 2.52842 2.52203C 2.48897 2.42579 2.49937 2.33756 2.51636 2.28586L 3.46642 2.59792ZM 0.403349 2.3789C 0.380957 2.40732 0.360879 2.4248 0.351512 2.43247C 0.346198 2.43682 0.342099 2.43983 0.339654 2.44155C 0.337177 2.4433 0.335805 2.44416 0.335797 2.44417C 0.335768 2.44418 0.336723 2.44359 0.338822 2.4424C 0.340907 2.44122 0.34387 2.4396 0.347814 2.43755C 0.355817 2.4334 0.366732 2.42808 0.381001 2.42165C 0.441045 2.39461 0.534213 2.35968 0.66469 2.318C 0.923678 2.23525 1.28806 2.13894 1.73796 2.03403C 2.63523 1.82482 3.83878 1.58922 5.14501 1.36619C 7.76585 0.918711 10.7503 0.530319 12.4717 0.500317L 12.4543 -0.499531C 10.6519 -0.468119 7.60414 -0.0681494 4.97671 0.380459C 3.65881 0.605478 2.43421 0.844863 1.51088 1.06016C 1.05048 1.16751 0.656451 1.27083 0.360354 1.36543C 0.213288 1.41242 0.0797466 1.46059 -0.0296571 1.50986C -0.084276 1.53446 -0.14146 1.56315 -0.194872 1.59659C -0.241927 1.62605 -0.317952 1.67856 -0.382126 1.76001L 0.403349 2.3789ZM 12.4717 0.500317C 12.5276 0.499344 12.5549 0.500905 12.5632 0.501707C 12.5674 0.502112 12.557 0.501446 12.5381 0.496897C 12.5262 0.494028 12.4691 0.480394 12.4036 0.436914C 12.3324 0.38962 12.1985 0.266975 12.1892 0.0546484C 12.1811 -0.129333 12.2758 -0.247357 12.3046 -0.280441C 12.3408 -0.322111 12.3742 -0.34466 12.3819 -0.349885C 12.3934 -0.357631 12.3998 -0.36076 12.3972 -0.359387C 12.3786 -0.349659 12.3275 -0.32811 12.2332 -0.293578C 12.1433 -0.260675 12.0477 -0.227819 11.9396 -0.189405C 11.8383 -0.153418 11.728 -0.113184 11.635 -0.0734398C 11.5887 -0.0536851 11.5372 -0.0300496 11.4889 -0.00311445C 11.4544 0.0161088 11.366 0.0662679 11.2932 0.152545C 11.2554 0.197365 11.1832 0.296796 11.1688 0.44426C 11.1518 0.618314 11.2233 0.763803 11.3141 0.857172C 11.3905 0.935757 11.4737 0.972513 11.5165 0.988901C 11.5652 1.00752 11.6107 1.01794 11.6452 1.02432C 11.7698 1.04738 11.9369 1.0497 12.1249 1.04438L 12.0966 0.0447817C 12.0091 0.047257 11.9432 0.0471907 11.8951 0.0455633C 11.8439 0.043832 11.8254 0.0406885 11.8271 0.0410138C 11.828 0.0411821 11.8465 0.0444378 11.8741 0.0550077C 11.8959 0.0633518 11.9641 0.0911864 12.0311 0.160052C 12.1124 0.243702 12.18 0.378672 12.1641 0.541487C 12.1508 0.677711 12.0847 0.765181 12.0575 0.797396C 12.006 0.858462 11.957 0.880836 11.9758 0.870317C 11.9809 0.867511 11.9967 0.859449 12.0278 0.846171C 12.0894 0.819848 12.1737 0.788672 12.2744 0.752864C 12.3684 0.719483 12.4822 0.680159 12.577 0.645455C 12.6673 0.612381 12.776 0.570896 12.8599 0.527123C 12.8829 0.515121 12.9114 0.499213 12.9408 0.479361C 12.9665 0.462029 13.0137 0.428047 13.0592 0.375694C 13.0973 0.331929 13.1967 0.203973 13.1882 0.0108881C 13.1785 -0.210542 13.0391 -0.341462 12.9568 -0.396125C 12.8803 -0.446975 12.8065 -0.467073 12.7718 -0.475423C 12.73 -0.485453 12.6908 -0.490616 12.6594 -0.493647C 12.5967 -0.499719 12.5265 -0.500789 12.4543 -0.499531L 12.4717 0.500317ZM 11.8433 0.966996L 13.0256 1.71581L 13.5607 0.870978L 12.3783 0.122168L 11.8433 0.966996Z"/>
<path id="path18_fill" fill-rule="evenodd" d="M 300.107 109.68C 297.632 108.335 293.068 114.269 287.253 120.204C 281.403 126.174 274.287 132.144 266.758 130.703C 262.81 129.947 259.553 127.347 246.758 106.702C 236.593 90.3011 230.928 79.4921 225.847 70.8001C 225.847 70.8001 213.404 49.5161 200.258 34.2021C 178.306 8.63115 128.14 -9.84285 80.7584 5.70215C 33.1704 21.3151 -3.44762 69.8722 0.258383 120.453C 4.25338 174.976 53.1264 204.866 66.7584 213.203C 129.577 251.621 197.68 229.5 208.758 225.703C 233.564 215.861 262.025 198.834 281.508 169.203C 298.939 142.692 305.062 112.372 300.107 109.68Z"/>
<path id="path19_fill" fill-rule="evenodd" d="M 302.324 109.862C 301.86 109.607 301.329 109.485 300.829 109.488C 300.244 109.489 299.705 109.634 299.201 109.845C 298.255 110.247 297.382 110.884 296.452 111.675C 294.834 113.062 293.069 114.958 291.119 117.04C 288.202 120.16 284.885 123.691 281.362 126.394C 279.602 127.746 277.795 128.888 275.984 129.681C 274.171 130.475 272.363 130.92 270.56 130.92C 269.89 130.92 269.218 130.859 268.541 130.729C 267.671 130.559 266.966 130.332 266.071 129.77C 264.736 128.93 262.97 127.225 260.366 123.766C 257.761 120.312 254.32 115.135 249.534 107.412C 239.392 91.048 233.751 80.283 228.643 71.543C 228.633 71.527 225.511 66.186 220.737 58.92C 215.961 51.652 209.539 42.464 202.897 34.725C 194.519 24.971 182.228 16.315 167.616 10.068C 153.005 3.82599 136.068 0.000998535 118.395 -1.46484e-06C 106.362 -1.46484e-06 93.987 1.77501 81.791 5.77701C 58.795 13.324 38.373 28.43 23.675 47.722C 8.98099 67.014 0.00200635 90.516 6.34766e-06 114.875C 6.34766e-06 117.264 0.0870068 119.661 0.263007 122.062C 2.29201 149.764 15.729 171.189 30.302 186.675C 37.592 194.424 45.173 200.702 51.79 205.569C 58.405 210.435 64.064 213.896 67.476 215.982C 95.91 233.372 125.413 238.477 150.277 238.476C 180.906 238.475 204.555 230.741 210.745 228.622C 235.796 218.684 264.547 201.505 284.262 171.527C 291.111 161.11 296.221 150.137 299.632 140.424C 301.337 135.567 302.617 131.024 303.474 127.014C 304.329 123.002 304.766 119.53 304.768 116.758C 304.765 115.164 304.628 113.802 304.292 112.647C 304.122 112.07 303.901 111.54 303.589 111.061C 303.278 110.585 302.861 110.154 302.325 109.862L 301.608 111.18L 300.892 112.498C 301.235 112.935 301.431 113.419 301.561 114.113C 301.693 114.806 301.768 115.702 301.768 116.758C 301.769 119.214 301.366 122.524 300.54 126.388C 298.064 137.995 291.798 154.614 281.755 169.878C 262.504 199.162 234.335 216.037 209.706 225.808L 210.259 227.203L 209.772 225.784C 203.733 227.855 180.41 235.477 150.277 235.476C 125.813 235.475 96.901 230.46 69.041 213.423C 65.637 211.341 60.076 207.939 53.568 203.152C 43.809 195.975 31.945 185.69 22.177 172.182C 12.407 158.671 4.73101 141.965 3.25501 121.843C 3.08401 119.515 3.00001 117.192 3.00001 114.875C 2.99901 91.263 11.717 68.37 26.062 49.539C 40.403 30.709 60.359 15.963 82.726 8.62799C 94.601 4.73199 106.656 3 118.395 3C 135.633 2.999 152.189 6.73799 166.438 12.827C 180.687 18.913 192.622 27.357 200.621 36.679C 207.125 44.254 213.498 53.364 218.23 60.567C 220.596 64.169 222.554 67.296 223.92 69.52C 224.602 70.632 225.137 71.518 225.5 72.125C 225.682 72.429 225.82 72.663 225.913 72.82C 231.106 81.701 236.796 92.554 246.984 108.992C 253.4 119.341 257.426 125.188 260.447 128.648C 261.959 130.377 263.234 131.522 264.464 132.304C 265.689 133.087 266.873 133.469 267.977 133.676C 268.843 133.842 269.706 133.92 270.56 133.92C 274.309 133.916 277.812 132.427 281.014 130.325C 285.819 127.162 290.056 122.558 293.586 118.794C 295.345 116.914 296.927 115.241 298.24 114.095C 298.894 113.522 299.481 113.084 299.946 112.82C 300.411 112.549 300.737 112.481 300.829 112.488L 301.608 111.18L 302.324 109.862Z"/>
<path id="path20_fill" fill-rule="evenodd" d="M 23.6075 59.417C 27.3825 59.166 30.0965 55.263 31.4645 52.79C 38.6355 39.835 31.5395 20.269 31.5395 20.269C 19.7705 6.38702 8.0015 -2.35898 2.8655 0.562016C -4.5885 4.80302 4.76353 32.011 5.55453 34.27C 7.08153 38.627 14.5775 60.018 23.6075 59.417Z"/>
<path id="path21_fill" fill-rule="evenodd" d="M 25.108 60.917L 25.208 62.413C 26.398 62.335 27.492 61.965 28.454 61.44C 29.9 60.649 31.071 59.521 32.03 58.362C 32.988 57.202 33.733 56 34.278 55.016C 36.856 50.35 37.669 45.009 37.672 40.001C 37.663 30.086 34.476 21.348 34.45 21.258L 34.358 21.005L 34.184 20.799C 29.011 14.699 23.835 9.56902 19.147 5.92102C 16.801 4.09702 14.577 2.642 12.505 1.622C 10.431 0.608005 8.50698 0.006026 6.68898 2.59993e-05C 5.60698 -0.001974 4.55097 0.230022 3.62397 0.758022C 2.89597 1.17202 2.29001 1.745 1.81501 2.406C 1.10201 3.4 0.662975 4.57701 0.386975 5.86001C 0.111975 7.14601 0.00101172 8.55003 1.17188e-05 10.039C 0.00601172 15.093 1.28303 21.184 2.61403 26.28C 3.94703 31.367 5.34703 35.429 5.64003 36.266C 6.40003 38.431 8.62203 44.788 11.817 50.676C 13.421 53.624 15.262 56.463 17.366 58.645C 18.42 59.734 19.544 60.663 20.768 61.338C 21.989 62.012 23.328 62.43 24.734 62.429C 24.892 62.429 25.049 62.424 25.207 62.413L 25.009 59.42C 24.917 59.426 24.825 59.429 24.734 59.429C 23.924 59.428 23.097 59.194 22.215 58.71C 20.676 57.871 19.042 56.236 17.526 54.165C 15.242 51.063 13.203 47.024 11.637 43.428C 10.067 39.828 8.96202 36.677 8.47102 35.274C 8.19502 34.488 6.818 30.489 5.516 25.519C 4.211 20.557 2.99501 14.595 3.00001 10.039C 2.99801 8.25803 3.18902 6.70103 3.57002 5.55603C 3.75902 4.98403 3.99201 4.51702 4.25001 4.15902C 4.50901 3.80102 4.78598 3.55002 5.10798 3.36602C 5.51498 3.13502 6.01698 3.00203 6.68898 3.00003C 7.80598 2.99403 9.36398 3.416 11.181 4.315C 13.912 5.654 17.213 8.018 20.754 11.169C 24.298 14.32 28.094 18.255 31.896 22.739L 33.04 21.769L 31.63 22.281L 31.636 22.298C 31.794 22.724 34.68 31.014 34.672 40.001C 34.675 44.688 33.889 49.533 31.653 53.564C 31.013 54.725 30.05 56.213 28.881 57.374C 28.298 57.955 27.667 58.453 27.018 58.806C 26.367 59.16 25.705 59.373 25.009 59.42L 25.108 60.917Z"/>
<path id="path22_fill" fill-rule="evenodd" d="M 16.4649 0.622373C 12.2849 1.21737 1.18288 2.79937 0.0878754 8.14837C -0.503125 11.0404 2.04386 13.8564 3.03386 14.8604C 10.4459 22.3804 25.2599 21.4784 25.2599 21.4784L 25.2609 21.4784C 31.2909 18.9764 36.3459 16.0644 39.7739 13.2804C 43.0849 10.5914 44.9919 8.07638 44.5289 5.84738C 43.4219 0.51238 27.9139 -1.00963 16.4649 0.622373Z"/>
<path id="path23_fill" fill-rule="evenodd" d="M 17.965 2.122L 17.754 0.636986C 15.652 0.937986 11.755 1.485 8.14799 2.678C 6.33999 3.28 4.59498 4.038 3.14298 5.083C 2.41798 5.607 1.76399 6.20699 1.23399 6.91399C 0.704986 7.61899 0.303996 8.44001 0.118996 9.34701C 0.0369961 9.74601 -2.24609e-05 10.142 -2.24609e-05 10.529C 0.00797754 12.238 0.684993 13.706 1.41599 14.87C 2.15299 16.035 2.983 16.922 3.465 17.413C 6.766 20.749 11.222 22.476 15.318 23.422C 19.422 24.363 23.205 24.511 25.257 24.512C 26.241 24.512 26.825 24.477 26.851 24.475L 26.76 22.978L 26.76 24.478L 27.06 24.478L 27.336 24.364C 33.473 21.814 38.631 18.856 42.22 15.944C 43.771 14.682 45.061 13.439 46.011 12.155C 46.485 11.512 46.874 10.856 47.153 10.169C 47.431 9.484 47.598 8.762 47.598 8.022C 47.598 7.695 47.565 7.36598 47.497 7.04199C 47.343 6.29199 46.996 5.607 46.535 5.023C 45.723 3.999 44.595 3.24401 43.269 2.61901C 41.277 1.68801 38.792 1.053 36.019 0.626C 33.246 0.203 30.19 -7.08008e-06 27.099 -7.08008e-06C 23.926 -7.08008e-06 20.718 0.213986 17.754 0.636986L 17.965 2.122L 18.177 3.60699C 20.983 3.20699 24.062 2.99899 27.099 2.99999C 31.604 2.99699 36.032 3.46201 39.309 4.37301C 40.946 4.82301 42.29 5.39199 43.181 5.99499C 43.627 6.29499 43.958 6.59801 44.177 6.87701C 44.396 7.15901 44.508 7.405 44.56 7.652C 44.585 7.772 44.597 7.894 44.598 8.022C 44.597 8.311 44.533 8.64499 44.373 9.04199C 44.135 9.63399 43.671 10.352 42.984 11.129C 42.3 11.907 41.4 12.746 40.328 13.615C 37.061 16.272 32.108 19.138 26.186 21.593L 26.761 22.978L 26.761 21.478L 26.715 21.478L 26.669 21.481L 26.653 21.482C 26.558 21.487 26.056 21.512 25.257 21.512C 23.355 21.513 19.766 21.367 15.99 20.498C 12.208 19.635 8.27903 18.036 5.60203 15.307C 5.19603 14.897 4.509 14.151 3.952 13.267C 3.388 12.383 2.99198 11.386 2.99998 10.529C 2.99998 10.332 3.01902 10.14 3.05802 9.949C 3.14702 9.519 3.33203 9.12 3.63602 8.712C 4.16202 8.002 5.08303 7.295 6.26603 6.687C 8.03603 5.769 10.347 5.07601 12.54 4.58901C 14.735 4.09801 16.809 3.80099 18.177 3.60699L 17.965 2.122Z"/>
<path id="path24_fill" fill-rule="evenodd" d="M 48 24C 48 37.256 37.255 48.001 24 48.001C 10.745 48.001 9.0332e-06 37.256 9.0332e-06 24C 9.0332e-06 10.746 10.745 -5.61523e-06 24 -5.61523e-06C 37.255 -5.61523e-06 48 10.746 48 24Z"/>
<path id="path25_fill" fill-rule="evenodd" d="M 26.4571 26.105C 24.0411 39.138 16.3231 48.635 9.21813 47.319C 2.11213 46.001 -1.68887 34.368 0.727133 21.336C 3.14213 8.30298 10.8611 -1.19501 17.9661 0.121987C 25.0711 1.43899 28.8721 13.072 26.4571 26.105Z"/>
<path id="path26_fill" fill-rule="evenodd" d="M 37.1812 58.9509C 53.1262 78.4199 74.6022 85.7569 76.7382 60.6829C 78.7392 37.1789 55.6922 13.3419 55.6922 13.3419L 55.6912 13.3419C 29.4852 1.28188 6.3642 -3.94708 1.1762 3.33492C -4.3828 11.1379 10.1172 34.0449 37.1812 58.9509Z"/>
<path id="path27_fill" fill-rule="evenodd" d="M 37.522 61.401C 41.989 66.854 46.885 71.386 51.743 74.588C 56.604 77.781 61.43 79.68 65.863 79.691C 67.676 79.692 69.423 79.362 71.027 78.648C 73.438 77.581 75.476 75.646 76.942 72.923C 78.415 70.196 79.359 66.689 79.734 62.31C 79.821 61.288 79.862 60.268 79.862 59.249C 79.847 47.517 74.406 36.215 69.042 27.796C 63.667 19.381 58.316 13.847 58.272 13.8L 57.829 13.342L 57.192 13.342L 57.192 14.842L 57.819 13.48C 48.768 9.31398 40.076 5.95503 32.322 3.62903C 24.564 1.30503 17.758 0.00499853 12.378 -1.46484e-06C 9.921 0.00199854 7.75401 0.271013 5.90101 0.890013C 4.05701 1.50601 2.49503 2.50403 1.45503 3.96503C 0.442026 5.38603 -0.00199132 7.14097 8.6782e-06 9.04797C 0.00800868 11.929 0.96103 15.239 2.68403 18.987C 5.27603 24.601 9.64598 31.196 15.556 38.426C 21.466 45.653 28.917 53.502 37.667 61.554L 38.682 60.451L 37.522 61.401L 38.682 60.451L 39.698 59.347C 28.153 48.724 18.918 38.472 12.606 29.672C 9.45003 25.274 7.02503 21.238 5.40803 17.73C 3.78603 14.226 2.99301 11.243 3.00001 9.04797C 3.00301 7.58397 3.32902 6.50599 3.89802 5.70599C 4.48302 4.88499 5.42799 4.21501 6.85499 3.73401C 8.27499 3.25601 10.145 2.999 12.378 3C 17.276 2.996 23.88 4.22501 31.46 6.50201C 39.045 8.77701 47.621 12.088 56.565 16.205L 56.864 16.342L 57.193 16.342L 57.193 14.842L 56.115 15.885C 56.743 16.544 61.962 22.116 67.002 30.184C 72.052 38.249 76.876 48.806 76.862 59.249C 76.862 60.186 76.824 61.122 76.745 62.056C 76.283 67.512 74.87 71.209 72.987 73.461C 72.044 74.592 70.987 75.381 69.808 75.907C 68.629 76.431 67.317 76.691 65.863 76.691C 62.319 76.702 57.938 75.084 53.394 72.082C 48.847 69.089 44.142 64.751 39.843 59.5L 38.682 60.451L 37.522 61.401Z"/>
<path id="path28_fill" fill-rule="evenodd" d="M 59.6681 104.325C 59.1821 102.776 58.2941 99.9745 57.1421 96.5025C 57.1421 96.5025 35.0671 57.3965 8.55714 5.49948C 4.07314 -3.27752 -1.52085 -1.11653 0.382154 8.91147C 0.595154 48.2755 0.808131 87.6405 1.02113 127.005C 1.29013 129.278 2.03214 132.778 4.35014 135.899C 9.38014 142.671 18.0821 142.609 21.9581 142.581C 44.7741 142.42 60.2341 117.257 60.1741 109.646C 60.1551 107.225 59.6681 104.325 59.6681 104.325Z"/>
<path id="path29_fill" fill-rule="evenodd" d="M 61.168 105.826L 62.6 105.377C 62.112 103.823 61.221 101.013 60.065 97.53L 60.019 97.392L 59.948 97.265C 59.947 97.263 59.605 96.657 58.95 95.488C 54.369 87.305 34.577 51.703 11.392 6.31803C 10.375 4.33003 9.288 2.81904 8.14001 1.74704C 7.56501 1.21304 6.971 0.787033 6.346 0.483034C 5.722 0.181034 5.05801 0.0010318 4.37801 3.18028e-05C 3.68701 -0.0029682 2.98901 0.200028 2.40801 0.577028C 1.52801 1.14603 0.935005 2.03204 0.558005 3.06204C 0.181005 4.10004 0.000990723 5.31604 -9.27734e-06 6.72104C -9.27734e-06 7.90804 0.131987 9.23102 0.408987 10.692L 1.88201 10.412L 0.38201 10.42C 0.59501 49.785 0.807987 89.149 1.02099 128.514L 1.02099 128.599L 1.031 128.682C 1.319 131.094 2.09899 134.858 4.64599 138.295C 7.22399 141.769 10.701 143.609 13.993 144.55C 17.29 145.495 20.448 145.584 22.592 145.586C 22.908 145.586 23.202 145.584 23.468 145.582C 29.438 145.541 34.919 143.862 39.745 141.275C 46.987 137.389 52.784 131.479 56.811 125.79C 58.825 122.942 60.394 120.148 61.475 117.655C 62.016 116.408 62.434 115.237 62.723 114.159C 63.01 113.079 63.173 112.098 63.174 111.192L 63.174 111.135C 63.15 108.538 62.652 105.618 62.648 105.578L 62.631 105.476L 62.6 105.377L 61.168 105.826L 59.689 106.075L 59.708 106.191C 59.797 106.74 60.161 109.197 60.174 111.159L 60.174 111.157L 60.174 111.192C 60.178 111.901 59.978 113.012 59.541 114.33C 58.782 116.645 57.329 119.615 55.277 122.719C 52.201 127.381 47.779 132.359 42.361 136.145C 36.938 139.935 30.552 142.532 23.447 142.582C 23.18 142.584 22.895 142.586 22.592 142.586C 20.547 142.588 17.676 142.488 14.821 141.666C 11.959 140.84 9.16101 139.337 7.05401 136.506C 4.96401 133.701 4.26 130.464 4.01 128.33L 2.52099 128.506L 4.02001 128.498C 3.80801 89.133 3.59501 49.768 3.38201 10.404L 3.38201 10.267L 3.35601 10.132C 3.10801 8.82802 2.99999 7.68504 2.99999 6.72104C 2.99499 5.19804 3.28499 4.12904 3.60699 3.58804C 3.76599 3.31404 3.91699 3.17304 4.02999 3.10004C 4.14699 3.02904 4.22901 3.00403 4.37801 3.00003C 4.52301 3.00003 4.74099 3.03905 5.03799 3.18305C 5.48099 3.39505 6.07801 3.84803 6.71801 4.59403C 7.36001 5.33703 8.048 6.36405 8.721 7.68305C 35.246 59.607 57.329 98.728 57.335 98.74L 58.642 98.003L 57.218 98.475C 58.367 101.937 59.252 104.731 59.737 106.276L 61.168 105.826L 59.689 106.075L 61.168 105.826Z"/>
<path id="path30_fill" fill-rule="evenodd" d="M 14.3646 63.7724C 20.8626 55.7894 22.7956 44.5863 20.4046 33.0253C 15.7486 24.1573 10.8146 14.6524 5.72157 4.68336C 3.86057 1.03936 1.93958 -0.229664 1.16758 0.0333355C 0.506582 0.259336 -0.561423 2.29333 0.356577 7.13233L 0.382578 7.40434L 0.738566 73.2933C 6.64857 70.6053 12.3756 66.2163 14.3646 63.7724Z"/>
<path id="path31_fill" fill-rule="evenodd" d="M 31.215 21.776C 27.646 15.114 23.764 7.80299 19.666 -7.08008e-06C 22.057 11.561 20.124 22.764 13.626 30.747C 11.637 33.191 5.91 37.58 -2.68555e-06 40.268L 0.170987 71.861C 5.41699 69.943 13.204 66.934 18.085 61.872C 30.915 48.562 31.785 30.957 31.215 21.776Z"/>
<path id="path32_fill" fill-rule="evenodd" d="M 45.685 44.629C 51.978 37.818 55.844 29.862 55.817 26.398C 55.8 24.364 55.428 21.926 55.346 21.411C 54.815 19.715 53.971 17.065 52.906 13.851C 52.43 13.006 49.654 8.06599 45.22 -1.46484e-05C 43.989 7.39899 39.711 24.858 27.025 35.262C 17.569 43.017 5.90799 45.014 -7.56836e-06 45.605C 0.516992 47.959 1.41601 50.021 2.69701 51.745C 7.27201 57.905 15.247 57.847 19.089 57.821C 31.707 57.732 41.168 49.518 45.685 44.629Z"/>
<path id="path33_fill" fill-rule="evenodd" d="M 45.669 26.96C 41.879 20.067 36.878 10.892 31.044 -6.10352e-06C 31.614 9.18099 30.744 26.786 17.914 40.096C 13.033 45.158 5.24599 48.167 -1.26953e-05 50.085L 0.11101 70.611C 0.19401 71.285 0.310992 71.933 0.448992 72.565C 6.35699 71.974 18.018 69.977 27.474 62.222C 40.16 51.818 44.438 34.359 45.669 26.96Z"/>
<path id="path34_fill" fill-rule="evenodd" d="M 14.593 11.0758C 13.409 16.1998 9.25294 19.6168 5.31095 18.7058C 1.36895 17.7948 -0.867043 12.9018 0.316957 7.77776C 1.50096 2.65276 5.65594 -0.763225 9.59894 0.146775C 13.5409 1.05777 15.776 5.95076 14.593 11.0758Z"/>
<path id="path35_fill" fill-rule="evenodd" d="M 12.7046 10.8144C 11.5206 15.9394 7.79858 19.4554 4.38958 18.6684C 0.982583 17.8814 -0.820418 13.0884 0.363582 7.96337C 1.54758 2.83837 5.26958 -0.677626 8.67758 0.110374C 12.0856 0.897374 13.8886 5.68935 12.7046 10.8144Z"/>
<path id="path36_fill" fill-rule="evenodd" d="M 12.2246 10.72C 11.2756 16.014 7.8236 19.824 4.5146 19.23C 1.2066 18.637 -0.706394 13.865 0.243606 8.571C 1.19261 3.277 4.64459 -0.532975 7.95259 0.0610252C 11.2616 0.654025 13.1736 5.42602 12.2246 10.72Z"/>
<path id="path37_fill" fill-rule="evenodd" d="M 12.725 11.22L 12.233 11.131C 11.806 13.518 10.85 15.588 9.65399 17.036C 8.45498 18.489 7.03901 19.295 5.70101 19.291C 5.50201 19.291 5.302 19.274 5.104 19.238C 3.921 19.026 2.909 18.194 2.169 16.869C 1.433 15.549 0.998994 13.757 0.999994 11.762C 0.999994 10.924 1.07599 10.05 1.23599 9.16001C 1.66299 6.77201 2.619 4.70301 3.815 3.25501C 5.014 1.80201 6.429 0.996006 7.768 1.00001C 7.967 1.00001 8.16601 1.01701 8.36501 1.05301C 9.54801 1.26501 10.559 2.097 11.299 3.422C 12.036 4.742 12.47 6.534 12.469 8.53C 12.469 9.368 12.393 10.242 12.233 11.131L 12.725 11.22L 13.217 11.308C 13.387 10.36 13.468 9.428 13.468 8.53C 13.468 6.391 13.011 4.44401 12.173 2.93601C 11.339 1.43201 10.093 0.346999 8.54199 0.0679988C 8.28399 0.0219988 8.025 5.61523e-06 7.768 5.61523e-06C 6.019 0.00400562 4.364 1.01899 3.044 2.61899C 1.721 4.22399 0.708008 6.44101 0.252008 8.98301C 0.0820078 9.93101 -6.34766e-06 10.863 -6.34766e-06 11.762C 0.000993652 13.901 0.458014 15.848 1.29601 17.356C 2.13001 18.859 3.376 19.944 4.927 20.223C 5.185 20.269 5.44301 20.291 5.70101 20.291C 7.45001 20.287 9.10401 19.272 10.425 17.672C 11.748 16.066 12.76 13.85 13.217 11.308L 12.725 11.22Z"/>
<path id="path38_fill" fill-rule="evenodd" d="M 196.033 53.5923C 198.896 52.1313 137.601 77.2783 99.3673 50.9263C 80.7363 38.0853 83.0133 23.8433 59.2003 10.9263C 37.6063 -0.787735 7.82928 -4.21373 1.36728 6.25927C -1.16772 10.3663 0.278265 15.9713 2.03327 20.2593C 6.77427 25.4253 12.7253 31.1893 20.0333 36.9263C 27.6713 42.9203 34.9963 47.4783 41.3673 50.9263C 54.2503 58.0733 81.9343 71.1743 119.367 71.5923C 155.67 71.9973 182.955 60.2693 196.033 53.5923Z"/>
<path id="path39_fill" fill-rule="evenodd" d="M 0.00348693 0.451086C -0.00251307 0.377086 -0.013526 0.198088 0.096474 0.072088L 0.129494 0.0401055C 0.493494 -0.276894 1.78947 1.35909 3.97947 2.37009C 5.99447 3.30009 7.94149 3.2061 7.96949 3.8151C 7.97349 3.9061 7.93349 3.97508 7.87449 4.06208C 6.97249 5.40008 5.54447 5.8151 5.54447 5.8151C 5.21547 5.9111 3.85047 6.3081 2.54847 5.5991C 2.01047 5.3051 1.69547 4.93908 1.42747 4.62708C 0.808468 3.90708 0.590469 3.2481 0.203469 2.0741C 0.203469 2.0741 0.111487 1.79609 0.00348693 0.451086Z"/>
<path id="path40_fill" fill-rule="evenodd" d="M 0.545089 44.869C 0.363089 30.179 0.182076 15.491 7.57567e-05 0.800992C -0.00692424 0.286992 0.397087 -3.17383e-06 0.799087 -3.17383e-06C 1.12009 -3.17383e-06 1.4401 0.183 1.5511 0.578C 4.8141 12.239 8.07808 23.904 11.3411 35.565C 10.8591 36.279 10.3461 36.972 9.80009 37.643C 8.31209 39.472 4.73009 42.39 0.545089 44.869Z"/>
<path id="path41_fill" fill-rule="evenodd" d="M 0.397003 41.423C 0.264003 30.716 0.132 20.01 -4.88281e-07 9.30398C 4.185 6.82498 7.767 3.907 9.255 2.078C 9.801 1.407 10.314 0.713999 10.796 -7.32422e-07C 13.348 9.121 15.899 18.24 18.452 27.361C 17.09 29.369 15.52 31.329 13.714 33.203C 10.124 36.926 4.963 39.538 0.397003 41.423Z"/>
<path id="path42_fill" fill-rule="evenodd" d="M 13.348 20.035C 11.639 20.035 9.42399 19.787 7.02499 18.854C 3.51199 17.488 1.296 15.313 0.208003 14.067C 0.0850027 13.927 0.022991 13.752 0.020991 13.565C 0.013991 13.005 0.00699487 12.446 -5.12695e-06 11.886C 6.29699 10.798 15.126 8.26401 22.585 2.14701C 23.422 1.46001 24.223 0.743006 24.988 6.10352e-06C 25.979 3.54201 26.969 7.07998 27.96 10.622C 28.002 10.773 28.002 10.928 27.952 11.077C 27.532 12.322 26.488 14.79 24.025 16.854C 20.687 19.651 16.971 19.839 15.858 19.854C 15.265 19.94 14.403 20.035 13.348 20.035Z"/>
<path id="path43_fill" fill-rule="evenodd" d="M 0.291995 37.707C 0.194995 29.826 0.0970027 21.943 2.68555e-06 14.062C 4.566 12.177 9.72699 9.565 13.317 5.842C 15.123 3.968 16.693 2.00799 18.055 -8.30078e-06C 20.463 8.60599 22.872 17.215 25.28 25.821C 24.515 26.564 23.714 27.281 22.877 27.968C 15.418 34.085 6.58899 36.619 0.291995 37.707Z"/>
<path id="path44_stroke" d="M 3.57566 0.473636L 4.04929 0.313413L 3.72885 -0.633854L 3.25521 -0.473631L 3.57566 0.473636ZM -0.160252 0.681764L -0.633886 0.841986L -0.313441 1.78925L 0.160193 1.62903L -0.160252 0.681764ZM 3.25521 -0.473631L -0.160252 0.681764L 0.160193 1.62903L 3.57566 0.473636L 3.25521 -0.473631Z"/>
<path id="path45_stroke" d="M 3.57565 0.473637L 4.04928 0.313412L 3.72883 -0.633854L 3.2552 -0.473629L 3.57565 0.473637ZM -0.160208 0.681767L -0.633841 0.841992L -0.313391 1.78926L 0.160242 1.62903L -0.160208 0.681767ZM 3.2552 -0.473629L -0.160208 0.681767L 0.160242 1.62903L 3.57565 0.473637L 3.2552 -0.473629Z"/>
<path id="path46_fill" fill-rule="evenodd" d="M 0.944092 -3.20313e-06L 6.39893 2.57928L 3.55127 4.79028L 0 4.79028L 0.944092 -3.20313e-06Z"/>
<path id="path47_stroke" d="M 0.944092 -3.20313e-06L 1.15782 -0.452019L 0.577628 -0.726361L 0.453528 -0.0966858L 0.944092 -3.20313e-06ZM 6.39893 2.57928L 6.70556 2.97422L 7.34835 2.47514L 6.61266 2.12727L 6.39893 2.57928ZM 3.55127 4.79028L 3.55127 5.29028L 3.72259 5.29028L 3.85791 5.18521L 3.55127 4.79028ZM 0 4.79028L -0.490563 4.6936L -0.60816 5.29028L 0 5.29028L 0 4.79028ZM 0.730359 0.452013L 6.18519 3.0313L 6.61266 2.12727L 1.15782 -0.452019L 0.730359 0.452013ZM 6.09229 2.18435L 3.24463 4.39535L 3.85791 5.18521L 6.70556 2.97422L 6.09229 2.18435ZM 3.55127 4.29028L 0 4.29028L 0 5.29028L 3.55127 5.29028L 3.55127 4.29028ZM 0.490563 4.88696L 1.43466 0.0966794L 0.453528 -0.0966858L -0.490563 4.6936L 0.490563 4.88696Z"/>
<path id="path48_fill" fill-rule="evenodd" d="M 2.9425 2.52539e-05L 3.58685 1.76785L 2.54724 2.88259L 0 2.13327L 2.9425 2.52539e-05Z"/>
<path id="path49_stroke" d="M 2.9425 2.52539e-05L 3.41227 -0.171199L 3.1854 -0.793642L 2.64903 -0.404785L 2.9425 2.52539e-05ZM 3.58685 1.76785L 3.95251 2.10886L 4.16161 1.88466L 4.05662 1.59662L 3.58685 1.76785ZM 2.54724 2.88259L 2.40613 3.36227L 2.70233 3.4494L 2.9129 3.22361L 2.54724 2.88259ZM 0 2.13327L -0.293477 1.72845L -1.11737 2.32575L -0.141107 2.61294L 0 2.13327ZM 2.47274 0.17125L 3.11708 1.93907L 4.05662 1.59662L 3.41227 -0.171199L 2.47274 0.17125ZM 3.22119 1.42683L 2.18158 2.54158L 2.9129 3.22361L 3.95251 2.10886L 3.22119 1.42683ZM 2.68835 2.40292L 0.141107 1.65359L -0.141107 2.61294L 2.40613 3.36227L 2.68835 2.40292ZM 0.293477 2.53808L 3.23598 0.404835L 2.64903 -0.404785L -0.293477 1.72845L 0.293477 2.53808Z"/>
<path id="path50_fill" fill-rule="evenodd" d="M 1.27041 0.123434L 1.5071 0.18923L 2.0862 0.772177L 1.79256 1.89559L 1.38833 2.36934L 0.547506 1.98006L 2.06875e-05 1.44308L 0.265035 0.805746L 0.836691 2.0957e-05L 1.27041 0.123434Z"/>
<path id="path51_stroke" d="M 1.27041 0.123434L 1.13356 0.604353L 1.13649 0.605168L 1.27041 0.123434ZM 1.5071 0.18923L 1.86182 -0.163152L 1.76854 -0.257055L 1.64101 -0.292504L 1.5071 0.18923ZM 2.0862 0.772177L 2.56995 0.89862L 2.64216 0.622366L 2.44092 0.419795L 2.0862 0.772177ZM 1.79256 1.89559L 2.17292 2.22013L 2.24732 2.13293L 2.27631 2.02203L 1.79256 1.89559ZM 1.38833 2.36934L 1.17826 2.82308L 1.52247 2.98244L 1.76868 2.69389L 1.38833 2.36934ZM 0.547506 1.98006L 0.197392 2.33702L 0.259056 2.3975L 0.337438 2.43379L 0.547506 1.98006ZM 2.06875e-05 1.44308L -0.461656 1.2511L -0.59147 1.56329L -0.350094 1.80003L 2.06875e-05 1.44308ZM 0.265035 0.805746L -0.142754 0.516423L -0.175148 0.56208L -0.196642 0.613771L 0.265035 0.805746ZM 0.836691 2.0957e-05L 0.973533 -0.480889L 0.633482 -0.57765L 0.428901 -0.289302L 0.836691 2.0957e-05ZM 1.13649 0.605168L 1.37319 0.670964L 1.64101 -0.292504L 1.40432 -0.3583L 1.13649 0.605168ZM 1.15238 0.541611L 1.73148 1.12456L 2.44092 0.419795L 1.86182 -0.163152L 1.15238 0.541611ZM 1.60245 0.645734L 1.30881 1.76915L 2.27631 2.02203L 2.56995 0.89862L 1.60245 0.645734ZM 1.41221 1.57105L 1.00797 2.0448L 1.76868 2.69389L 2.17292 2.22013L 1.41221 1.57105ZM 1.59839 1.91561L 0.757574 1.52633L 0.337438 2.43379L 1.17826 2.82308L 1.59839 1.91561ZM 0.89762 1.6231L 0.350135 1.08612L -0.350094 1.80003L 0.197392 2.33702L 0.89762 1.6231ZM 0.461698 1.63505L 0.726712 0.997721L -0.196642 0.613771L -0.461656 1.2511L 0.461698 1.63505ZM 0.672825 1.09507L 1.24448 0.289344L 0.428901 -0.289302L -0.142754 0.516423L 0.672825 1.09507ZM 0.699849 0.480931L 1.13356 0.604344L 1.40725 -0.357476L 0.973533 -0.480889L 0.699849 0.480931Z"/>
<path id="path52_fill" d="M 1.00001 4.00002C 1.5523 4.00002 2.00001 3.10459 2.00001 2.00002C 2.00001 0.895446 1.5523 1.56445e-05 1.00001 1.56445e-05C 0.44773 1.56445e-05 1.43438e-05 0.895446 1.43438e-05 2.00002C 1.43438e-05 3.10459 0.44773 4.00002 1.00001 4.00002Z"/>
<path id="path53_stroke" d="M 1.50001 2.00002C 1.50001 2.49151 1.39934 2.91175 1.25991 3.19062C 1.19026 3.32992 1.12025 3.41551 1.06634 3.46111C 1.04054 3.48293 1.02204 3.4926 1.01217 3.49664C 1.0073 3.49863 1.00421 3.4994 1.00274 3.4997C 1.00132 3.49998 1.00054 3.50002 1.00001 3.50002L 1.00001 4.50002C 1.56757 4.50002 1.94679 4.05292 2.15433 3.63784C 2.37683 3.19285 2.50001 2.61309 2.50001 2.00002L 1.50001 2.00002ZM 1.00001 3.50002C 0.999484 3.50002 0.998709 3.49998 0.997294 3.4997C 0.995817 3.4994 0.992731 3.49863 0.987863 3.49664C 0.97799 3.4926 0.959486 3.48293 0.93369 3.46111C 0.87978 3.41551 0.809769 3.32992 0.740121 3.19062C 0.600686 2.91175 0.500014 2.49151 0.500014 2.00002L -0.499986 2.00002C -0.499986 2.61309 -0.3768 3.19285 -0.154306 3.63784C 0.0532345 4.05292 0.432458 4.50002 1.00001 4.50002L 1.00001 3.50002ZM 0.500014 2.00002C 0.500014 1.50852 0.600686 1.08828 0.740121 0.809409C 0.809769 0.670114 0.87978 0.584526 0.93369 0.538921C 0.959486 0.517099 0.97799 0.507435 0.987863 0.503395C 0.992731 0.501402 0.995817 0.500636 0.997294 0.500336C 0.998709 0.500049 0.999484 0.500016 1.00001 0.500016L 1.00001 -0.499984C 0.432458 -0.499984 0.0532345 -0.0528858 -0.154306 0.362195C -0.3768 0.807184 -0.499986 1.38694 -0.499986 2.00002L 0.500014 2.00002ZM 1.00001 0.500016C 1.00054 0.500016 1.00132 0.500049 1.00274 0.500336C 1.00421 0.500636 1.0073 0.501402 1.01217 0.503395C 1.02204 0.507435 1.04054 0.517099 1.06634 0.538921C 1.12025 0.584526 1.19026 0.670114 1.25991 0.809409C 1.39934 1.08828 1.50001 1.50852 1.50001 2.00002L 2.50001 2.00002C 2.50001 1.38694 2.37683 0.807184 2.15433 0.362195C 1.94679 -0.0528858 1.56757 -0.499984 1.00001 -0.499984L 1.00001 0.500016Z"/>
<path id="path54_fill" d="M 1.00001 2.00001C 1.5523 2.00001 2.00001 1.5523 2.00001 1.00001C 2.00001 0.447727 1.5523 1.13105e-05 1.00001 1.13105e-05C 0.447727 1.13105e-05 1.17188e-05 0.447727 1.17188e-05 1.00001C 1.17188e-05 1.5523 0.447727 2.00001 1.00001 2.00001Z"/>
<path id="path55_stroke" d="M 1.50001 1.00001C 1.50001 1.27615 1.27615 1.50001 1.00001 1.50001L 1.00001 2.50001C 1.82844 2.50001 2.50001 1.82844 2.50001 1.00001L 1.50001 1.00001ZM 1.00001 1.50001C 0.723869 1.50001 0.500012 1.27615 0.500012 1.00001L -0.499988 1.00001C -0.499988 1.82844 0.171585 2.50001 1.00001 2.50001L 1.00001 1.50001ZM 0.500012 1.00001C 0.500012 0.723869 0.723869 0.500011 1.00001 0.500011L 1.00001 -0.499989C 0.171585 -0.499989 -0.499988 0.171584 -0.499988 1.00001L 0.500012 1.00001ZM 1.00001 0.500011C 1.27615 0.500011 1.50001 0.723869 1.50001 1.00001L 2.50001 1.00001C 2.50001 0.171584 1.82844 -0.499989 1.00001 -0.499989L 1.00001 0.500011Z"/>
<path id="path56_fill" fill-rule="evenodd" d="M 4.90923 4C 6.56608 4 7.90923 3.10457 7.90923 2C 7.90923 0.895431 6.56608 0 4.90923 0C 4.25706 0 3.47541 0.0143585 2.98323 0.249969C 2.22501 0.61294 -1.27227e-05 1.33021 -1.27227e-05 2C -1.27227e-05 3.10457 3.25237 4 4.90923 4Z"/>
<path id="path57_fill" fill-rule="evenodd" d="M 2.33425 1.40764C 3.16268 1.40764 3.83425 0.959929 3.83425 0.407644C 3.83425 0.0394539 2.55615 -0.0793214 -1.10332e-05 0.0513206L 0.226826 1.78145C 1.0795 1.53225 1.78196 1.40764 2.33425 1.40764Z"/>
<path id="path58_fill" fill-rule="evenodd" d="M 2.80965 4.08331C 3.37002 4.08331 5.76308 6.58413 6.12618 6.21283C 6.23228 6.10434 6.82718 5.40876 6.66778 4.93277C 6.63369 4.83097 6.62326 4.86432 6.57372 4.7564C 6.08497 3.69169 4.80965 2.42877 4.80965 2.08331C 4.80965 0.97874 3.91422 0.083309 2.80965 0.083309C 1.70509 0.083309 0.801933 -0.348927 0.801933 0.755642C 0.801933 1.3314 -0.306473 3.61085 0.0829087 3.97576C 0.440545 4.31093 2.28084 4.08331 2.80965 4.08331Z"/>
<path id="path59_fill" d="M 3 4C 4.65685 4 6 3.10457 6 2C 6 0.89543 4.65685 0 3 0C 1.34315 0 0 0.89543 0 2C 0 3.10457 1.34315 4 3 4Z"/>
<path id="path60_stroke" d="M 5.5 2C 5.5 2.33309 5.29747 2.69585 4.84397 2.99819C 4.39396 3.29819 3.74348 3.5 3 3.5L 3 4.5C 3.91337 4.5 4.76289 4.25409 5.39867 3.83024C 6.03096 3.40872 6.5 2.77148 6.5 2L 5.5 2ZM 3 3.5C 2.25652 3.5 1.60604 3.29819 1.15603 2.99819C 0.702528 2.69585 0.5 2.33309 0.5 2L -0.5 2C -0.5 2.77148 -0.0309554 3.40872 0.60133 3.83024C 1.23711 4.25409 2.08663 4.5 3 4.5L 3 3.5ZM 0.5 2C 0.5 1.66691 0.702528 1.30415 1.15603 1.00181C 1.60604 0.701807 2.25652 0.5 3 0.5L 3 -0.5C 2.08663 -0.5 1.23711 -0.254092 0.60133 0.169761C -0.0309555 0.591285 -0.5 1.22852 -0.5 2L 0.5 2ZM 3 0.5C 3.74348 0.5 4.39396 0.701807 4.84397 1.00181C 5.29747 1.30415 5.5 1.66691 5.5 2L 6.5 2C 6.5 1.22852 6.03096 0.591285 5.39867 0.169761C 4.76289 -0.254092 3.91337 -0.5 3 -0.5L 3 0.5Z"/>
<path id="path61_fill" fill-rule="evenodd" d="M 1.30853 2.65057C 2.63468 1.59219 3.29779 0.87887 3.29779 0.510681C 3.29779 0.443383 3.28766 0.387513 3.26746 0.343079L 3.1153 0.182495C 2.2826 0.0608371 1.74418 0 1.5 0C 0.671573 0 0 0.447715 0 1C 0 1.29432 0.251597 1.63421 0.754822 2.01971L 1.30853 2.65057Z"/>
</defs>
</svg>
